# xmcd CD database file
#
# Track frame offsets:
#	150
#	33222
#	66865
#	89692
#	124035
#	153585
#	179810
#	202500
#	224352
#	245805
#	270685
#	295245
#
# Disc length: 4289 seconds
#
# Revision: 0
# Processed by: cddbd v1.5.2PL0 Copyright (c) Steve Scherf et al.
# Submitted via: CDex 1.51
#
DISCID=b710bf0c
DTITLE=Duke Pearson - The Classic Album Collection - cd 2
DYEAR=2018
DGENRE=Jazz
TTITLE0=Ghana
TTITLE1=Little Boy Blue
TTITLE2=Gate City
TTITLE3=Lex
TTITLE4=''Bo''
TTITLE5=My Girl Shirl
TTITLE6=Bag's Groove
TTITLE7=Le Carrousel
TTITLE8=I'm an Old Cowhand
TTITLE9=Jeannine
TTITLE10=Say You're Mine
TTITLE11=Exodus
EXTD=YEAR: 2018
EXTT0=
EXTT1=
EXTT2=
EXTT3=
EXTT4=
EXTT5=
EXTT6=
EXTT7=
EXTT8=
EXTT9=
EXTT10=
EXTT11=
PLAYORDER=
